<mxfile host="app.diagrams.net" modified="2020-08-04T20:53:07.439Z" agent="5.0 (Windows NT 10.0; Win64; x64) AppleWebKit/537.36 (KHTML, like Gecko) Chrome/84.0.4147.105 Safari/537.36" etag="8T-xv-WHIBQOzUirLiWL" version="13.5.8" type="github">
  <diagram id="IWUC_NM5biAv0EW8VqH7" name="Page-1">
    <mxGraphModel dx="593" dy="331" grid="1" gridSize="10" guides="1" tooltips="1" connect="1" arrows="1" fold="1" page="1" pageScale="1" pageWidth="850" pageHeight="1100" math="0" shadow="0">
      <root>
        <mxCell id="0" />
        <mxCell id="1" parent="0" />
        <mxCell id="uN2XKNfWpw2gYlJKjTjq-1" value="Moodipy User" style="shape=umlActor;verticalLabelPosition=bottom;labelBackgroundColor=#ffffff;verticalAlign=top;html=1;outlineConnect=0;" parent="1" vertex="1">
          <mxGeometry x="40" y="130" width="30" height="60" as="geometry" />
        </mxCell>
        <mxCell id="uN2XKNfWpw2gYlJKjTjq-4" value="GUI" style="shape=umlActor;verticalLabelPosition=bottom;labelBackgroundColor=#ffffff;verticalAlign=top;html=1;outlineConnect=0;" parent="1" vertex="1">
          <mxGeometry x="400" y="130" width="30" height="60" as="geometry" />
        </mxCell>
        <mxCell id="uN2XKNfWpw2gYlJKjTjq-16" value="" style="edgeStyle=orthogonalEdgeStyle;rounded=0;orthogonalLoop=1;jettySize=auto;html=1;" parent="1" source="uN2XKNfWpw2gYlJKjTjq-10" target="uN2XKNfWpw2gYlJKjTjq-15" edge="1">
          <mxGeometry relative="1" as="geometry" />
        </mxCell>
        <mxCell id="uN2XKNfWpw2gYlJKjTjq-10" value="Clicks &quot;login&quot; button" style="ellipse;whiteSpace=wrap;html=1;" parent="1" vertex="1">
          <mxGeometry x="120" y="120" width="120" height="80" as="geometry" />
        </mxCell>
        <mxCell id="uN2XKNfWpw2gYlJKjTjq-11" value="" style="endArrow=classic;html=1;entryX=0;entryY=0.5;entryDx=0;entryDy=0;" parent="1" target="uN2XKNfWpw2gYlJKjTjq-10" edge="1">
          <mxGeometry width="50" height="50" relative="1" as="geometry">
            <mxPoint x="70" y="160" as="sourcePoint" />
            <mxPoint x="230" y="290" as="targetPoint" />
          </mxGeometry>
        </mxCell>
        <mxCell id="uN2XKNfWpw2gYlJKjTjq-15" value="Type in username" style="ellipse;whiteSpace=wrap;html=1;" parent="1" vertex="1">
          <mxGeometry x="270" y="125" width="100" height="70" as="geometry" />
        </mxCell>
        <mxCell id="uN2XKNfWpw2gYlJKjTjq-19" value="" style="endArrow=classic;html=1;exitX=1;exitY=0.5;exitDx=0;exitDy=0;" parent="1" source="uN2XKNfWpw2gYlJKjTjq-15" target="uN2XKNfWpw2gYlJKjTjq-4" edge="1">
          <mxGeometry width="50" height="50" relative="1" as="geometry">
            <mxPoint x="390" y="310" as="sourcePoint" />
            <mxPoint x="440" y="260" as="targetPoint" />
          </mxGeometry>
        </mxCell>
      </root>
    </mxGraphModel>
  </diagram>
</mxfile>
